# xmcd
#
# Track frame offsets: 
#        150
#        12485
#        25750
#        43765
#        58145
#        75522
#        90350
#        102170
#        113352
#        134187
#        143685
#        161195
#
# Disc length: 2279 seconds
#
# Revision: 0
# Processed by: cddbd v1.5.2PL0 Copyright (c) Steve Scherf et al.
# Submitted via: ExactAudioCopy v0.99pb5
#
DISCID=9708e50c
DTITLE=Gary Brewer and the Kentucky Ramblers - Down Home Memories
DYEAR=1989
DGENRE=Country
TTITLE0=Johnson City Blues
TTITLE1=Short Life Of Trouble
TTITLE2=I Still Miss Someone
TTITLE3=Down Home Memories
TTITLE4=Graycoat Soldiers
TTITLE5=Rambler Blues
TTITLE6=(Me And) The Rambler Sound
TTITLE7=Sleep With One Eye Open
TTITLE8=Home Ain't The Way It Used To Be
TTITLE9=Big Train
TTITLE10=I Don't Know What's Become Of Me
TTITLE11=Window Shoppin'
EXTD=
EXTT0=
EXTT1=
EXTT2=
EXTT3=
EXTT4=
EXTT5=
EXTT6=
EXTT7=
EXTT8=
EXTT9=
EXTT10=
EXTT11=
PLAYORDER=
